<svg width="18" height="18" viewBox="0 0 18 18" fill="none" xmlns="http://www.w3.org/2000/svg">
<mask id="mask0_2_243" style="mask-type:alpha" maskUnits="userSpaceOnUse" x="0" y="0" width="18" height="18">
<rect width="18" height="18" fill="#D9D9D9"/>
</mask>
<g mask="url(#mask0_2_243)">
<path d="M6.375 4.5C5.9625 4.5 5.6095 4.353 5.316 4.059C5.022 3.7655 4.875 3.4125 4.875 3C4.875 2.5875 5.022 2.23425 5.316 1.94025C5.6095 1.64675 5.9625 1.5 6.375 1.5C6.7875 1.5 7.14075 1.64675 7.43475 1.94025C7.72825 2.23425 7.875 2.5875 7.875 3C7.875 3.4125 7.72825 3.7655 7.43475 4.059C7.14075 4.353 6.7875 4.5 6.375 4.5ZM10.5 15H5.6625C5.25 15 4.872 14.8533 4.5285 14.5597C4.1845 14.2657 3.96875 13.9125 3.88125 13.5L2.25 5.25H3.7875L5.4375 13.5H10.5V15ZM14.625 16.5L12.45 12.75H7.2375C6.875 12.75 6.5595 12.6405 6.291 12.4215C6.022 12.203 5.85 11.9125 5.775 11.55L4.95 7.5375C4.8125 6.9375 4.953 6.40625 5.3715 5.94375C5.7905 5.48125 6.3 5.25 6.9 5.25C7.3375 5.25 7.7345 5.38125 8.091 5.64375C8.447 5.90625 8.675 6.2625 8.775 6.7125L9.6 10.5H12.0375C12.3 10.5 12.5437 10.5687 12.7687 10.7062C12.9937 10.8438 13.175 11.025 13.3125 11.25L15.9375 15.75L14.625 16.5Z" fill="#36E2B4"/>
</g>
</svg>
