<svg width="12" height="17" viewBox="0 0 12 17" fill="none" xmlns="http://www.w3.org/2000/svg">
<path d="M6 16.25L0.6 12.2C0.4125 12.0625 0.26575 11.8875 0.15975 11.675C0.0532499 11.4625 0 11.2375 0 11V2C0 1.5875 0.147 1.23425 0.441 0.94025C0.7345 0.64675 1.0875 0.5 1.5 0.5H10.5C10.9125 0.5 11.2657 0.64675 11.5597 0.94025C11.8533 1.23425 12 1.5875 12 2V11C12 11.2375 11.947 11.4625 11.841 11.675C11.7345 11.8875 11.5875 12.0625 11.4 12.2L6 16.25ZM5.2125 10.25L9.45 6.0125L8.4 4.925L5.2125 8.1125L3.6375 6.5375L2.55 7.5875L5.2125 10.25Z" fill="#36E2B4"/>
</svg>
