<svg width="18" height="18" viewBox="0 0 44 44" fill="none" xmlns="http://www.w3.org/2000/svg">
<g clip-path="url(#clip0_2_303)">
<rect width="44" height="44" fill="white"/>
<mask id="mask0_2_303" style="mask-type:alpha" maskUnits="userSpaceOnUse" x="7" y="7" width="30" height="30">
<rect x="7" y="7" width="30" height="30" fill="#D9D9D9"/>
</mask>
<g mask="url(#mask0_2_303)">
<path d="M19.5 34.5V27H15.75L19.5625 17.375C19.7708 16.875 20.0938 16.4792 20.5312 16.1875C20.9687 15.8958 21.4583 15.75 22 15.75C22.5417 15.75 23.0313 15.8958 23.4688 16.1875C23.9062 16.4792 24.2292 16.875 24.4375 17.375L28.25 27H24.5V34.5H19.5ZM22 14.5C21.3125 14.5 20.7242 14.255 20.235 13.765C19.745 13.2758 19.5 12.6875 19.5 12C19.5 11.3125 19.745 10.7237 20.235 10.2337C20.7242 9.74458 21.3125 9.5 22 9.5C22.6875 9.5 23.2763 9.74458 23.7663 10.2337C24.2554 10.7237 24.5 11.3125 24.5 12C24.5 12.6875 24.2554 13.2758 23.7663 13.765C23.2763 14.255 22.6875 14.5 22 14.5Z" fill="#1C1B1F"/>
</g>
</g>
<rect x="0.5" y="0.5" width="43" height="43" stroke="#CBCBCB"/>
<defs>
<clipPath id="clip0_2_303">
<rect width="44" height="44" fill="white"/>
</clipPath>
</defs>
</svg>
